<?xml version="1.0" standalone="no"?>
<svg version="1.0" xmlns="http://www.w3.org/2000/svg"
 width="228" height="240" viewBox="0 0 1824.000000 1920.000000"
 preserveAspectRatio="xMidYMid meet">
<g transform="translate(0.000000,1920.000000) scale(0.100000,-0.100000)"
fill="#4A84D0" stroke="none">
<path d="M15936 18385 c-8 -9 -18 -32 -21 -53 -3 -20 -18 -77 -34 -127 -17
-49 -33 -110 -36 -135 -4 -25 -16 -59 -26 -76 -11 -17 -19 -50 -19 -72 0 -24
-9 -56 -20 -74 l-20 -33 0 -55 0 -55 -20 -33 c-11 -18 -20 -50 -20 -74 0 -22
-8 -54 -19 -72 -11 -17 -22 -53 -26 -81 -4 -27 -20 -84 -35 -125 -15 -41 -31
-97 -34 -125 -4 -27 -16 -65 -27 -83 -10 -18 -19 -52 -19 -75 l0 -42 -35 -37
-34 -38 -1014 0 -1013 0 -16 -12 c-9 -7 -33 -40 -52 -73 l-36 -60 0 -55 0 -55
-20 -33 c-11 -18 -20 -50 -20 -74 0 -22 -8 -54 -19 -72 -11 -17 -22 -53 -26
-81 -4 -27 -20 -84 -35 -125 -15 -41 -31 -97 -34 -125 -4 -27 -16 -65 -27 -83
l-19 -33 0 -50 c0 -28 -6 -62 -14 -77 -7 -15 -17 -49 -21 -77 -4 -27 -15 -64
-26 -81 -11 -18 -19 -50 -19 -74 0 -24 -8 -56 -19 -74 -11 -17 -23 -53 -27
-81 -4 -27 -13 -64 -20 -82 -8 -18 -14 -52 -14 -77 0 -26 -8 -59 -19 -78 -11
-18 -23 -55 -27 -83 -3 -27 -20 -85 -35 -128 -16 -43 -29 -91 -29 -106 0 -15
-11 -50 -25 -77 -31 -61 -31 -68 0 -82 l26 -12 1023 0 1023 0 20 23 c22 25 68
158 78 227 4 25 15 60 26 78 l19 33 0 50 c0 28 6 62 14 77 7 15 17 50 21 77 4
28 15 64 26 81 11 18 19 50 19 72 0 24 9 56 20 74 l20 33 0 55 0 55 20 33 c11
18 20 50 20 74 0 22 8 54 19 72 11 17 22 54 26 81 4 28 20 84 35 125 15 41 31
98 34 125 4 28 16 65 27 83 l19 33 0 50 c0 28 6 62 14 77 7 15 17 50 21 77 4
28 15 64 26 81 10 17 19 49 19 70 l0 39 33 64 32 63 40 16 40 16 665 6 665 5
31 17 c43 24 51 36 59 93 4 28 20 84 35 125 15 41 31 98 35 125 4 28 15 64 26
81 11 18 19 50 19 72 0 24 9 56 20 74 l20 33 0 55 0 55 20 33 c11 18 20 50 20
74 0 22 8 54 19 72 11 17 22 54 26 81 4 28 20 84 35 125 15 41 31 98 34 125 4
28 18 69 32 92 37 63 31 104 -17 128 l-28 15 -695 0 -695 0 -15 -15z"/>
<path d="M8344 14792 c-6 -4 -23 -31 -37 -60 l-27 -54 0 -49 c0 -28 -6 -62
-14 -77 -7 -15 -17 -49 -21 -77 -4 -27 -15 -64 -26 -81 -11 -18 -19 -50 -19
-72 0 -24 -9 -56 -20 -74 l-20 -33 0 -55 0 -55 -20 -33 c-11 -18 -20 -50 -20
-74 0 -22 -8 -54 -19 -72 -11 -17 -22 -53 -26 -81 -4 -27 -20 -84 -35 -125
-15 -41 -31 -97 -34 -125 -4 -27 -16 -65 -27 -84 l-20 -34 -3 -74 c-2 -40 1
-76 6 -79 8 -5 1459 -6 1465 0 1 1 8 37 14 80 6 43 23 113 38 155 16 42 32 99
36 126 4 28 15 64 26 81 11 18 19 50 19 72 0 24 9 56 20 74 l20 33 0 55 0 55
20 33 c11 18 20 50 20 74 0 22 8 54 19 72 11 17 22 54 26 81 4 28 20 84 35
125 15 41 31 98 34 125 4 28 18 69 32 92 37 63 31 104 -17 128 l-28 15 -693 0
c-381 0 -698 -4 -704 -8z"/>
<path d="M9425 13308 c-42 -121 -54 -160 -60 -198 -4 -25 -16 -59 -26 -76 -11
-17 -19 -50 -19 -72 0 -24 -9 -56 -20 -74 l-20 -33 0 -55 0 -55 -20 -33 c-11
-18 -20 -50 -20 -74 0 -22 -8 -54 -19 -72 -11 -17 -22 -53 -26 -81 -4 -27 -20
-84 -35 -125 -15 -41 -31 -97 -34 -125 -4 -27 -16 -65 -27 -83 l-19 -33 0 -50
c0 -28 -6 -62 -14 -77 -7 -15 -17 -49 -21 -77 -4 -27 -15 -64 -26 -81 -11 -18
-19 -50 -19 -74 0 -24 -8 -56 -19 -74 -11 -17 -23 -53 -27 -81 -4 -27 -13 -64
-20 -82 -8 -18 -14 -53 -14 -77 0 -27 -9 -62 -22 -87 -11 -23 -23 -62 -26 -88
l-4 -46 20 -18 19 -17 1024 -3 1024 -2 3 -32 c2 -18 -12 -77 -32 -135 -19 -57
-38 -123 -41 -148 -4 -25 -16 -59 -26 -76 -11 -17 -19 -50 -19 -72 0 -24 -9
-56 -20 -74 l-20 -33 0 -55 0 -55 -20 -33 c-11 -18 -20 -50 -20 -74 0 -22 -8
-54 -19 -72 -11 -17 -22 -53 -26 -81 -4 -27 -20 -84 -35 -125 -15 -41 -31 -97
-34 -125 -4 -27 -16 -65 -27 -83 l-19 -33 0 -50 c0 -28 -6 -62 -14 -77 -7 -15
-17 -49 -21 -77 -4 -27 -15 -64 -26 -81 -11 -18 -19 -50 -19 -74 0 -24 -8 -56
-19 -74 -11 -17 -23 -53 -27 -81 -4 -27 -13 -64 -20 -82 -8 -18 -14 -52 -14
-77 0 -26 -8 -59 -19 -78 -11 -18 -23 -55 -27 -83 -3 -27 -19 -84 -34 -125
-15 -41 -31 -97 -34 -125 -4 -27 -16 -65 -27 -83 l-19 -33 0 -50 c0 -28 -6
-62 -14 -77 -7 -15 -17 -49 -21 -77 -4 -27 -16 -65 -27 -83 l-20 -33 5 -34 5
-33 -24 -33 c-14 -19 -24 -47 -24 -66 l0 -33 1504 0 1505 0 15 15 c8 9 18 32
21 53 3 20 18 78 34 127 17 50 33 110 36 135 4 25 15 60 26 78 l19 33 0 50 c0
28 6 62 14 77 7 15 17 50 21 77 4 28 15 64 26 81 11 18 19 50 19 74 0 24 8 56
19 74 11 17 23 53 27 81 4 27 13 64 20 82 8 18 14 52 14 77 0 26 8 59 19 78
11 18 23 56 27 83 3 28 19 84 34 125 15 41 31 98 35 125 4 28 15 64 26 81 11
18 19 50 19 72 0 24 9 56 20 74 l20 33 0 55 0 55 20 33 c11 18 20 50 20 74 0
22 8 54 19 72 11 17 22 54 26 81 4 28 20 84 36 127 15 42 33 113 39 158 6 45
24 116 39 158 16 43 32 100 35 127 4 28 16 65 27 83 10 18 19 51 19 72 0 21
11 61 25 88 l25 50 22 6 c13 3 334 6 715 6 l692 0 15 16 c32 31 65 100 72 149
3 28 19 84 34 125 15 41 31 98 35 125 4 28 15 64 26 81 11 18 19 50 19 72 0
24 9 56 20 74 l20 33 0 55 0 55 20 33 c11 18 20 50 20 74 0 22 8 54 19 72 11
17 23 53 27 81 4 27 13 64 20 82 8 18 14 53 14 79 l0 47 21 34 22 35 5 66 4
67 -19 17 -19 17 -688 1 -689 1 -38 -37 -39 -38 0 -54 c0 -29 -6 -65 -14 -80
-7 -15 -17 -49 -21 -77 -4 -27 -15 -64 -26 -81 -11 -18 -19 -50 -19 -74 0 -24
-8 -56 -19 -74 -11 -17 -23 -53 -27 -81 -4 -27 -13 -64 -20 -82 -8 -18 -14
-52 -14 -77 0 -26 -8 -59 -19 -78 -11 -18 -23 -55 -27 -83 -3 -27 -19 -84 -34
-125 -15 -41 -31 -97 -35 -125 -4 -27 -16 -65 -27 -83 l-20 -33 5 -34 5 -33
-16 -23 c-9 -13 -24 -44 -32 -69 l-15 -45 -1494 -3 -1494 -2 -13 11 c-20 17
-17 47 11 107 13 29 30 83 36 120 6 37 20 81 30 98 11 17 19 50 19 72 0 24 9
56 20 74 l20 33 0 55 0 55 20 33 c11 18 20 50 20 74 0 22 8 54 19 72 11 17 22
54 26 81 4 28 20 84 35 125 15 41 31 98 34 125 4 28 16 65 27 83 l19 33 0 50
c0 28 6 62 14 77 7 15 17 50 21 77 4 28 15 64 26 81 11 18 19 50 19 74 0 24 8
56 19 74 10 17 22 51 26 76 3 25 13 64 22 87 9 25 13 55 9 74 l-6 31 25 42
c27 46 33 104 13 124 l-12 12 -1033 0 -1034 0 -4 -12z"/>
<path d="M5320 10280 l-985 -5 -32 -19 c-36 -22 -50 -48 -59 -109 -4 -23 -15
-56 -25 -73 -11 -18 -19 -50 -19 -74 0 -24 -8 -56 -19 -74 -11 -17 -23 -53
-27 -81 -4 -27 -13 -64 -20 -82 -8 -18 -14 -52 -14 -77 0 -26 -8 -59 -19 -78
-11 -18 -23 -55 -27 -83 -3 -27 -19 -84 -34 -125 -15 -41 -31 -97 -35 -125 -4
-27 -15 -64 -26 -81 -11 -18 -19 -50 -19 -72 0 -24 -9 -56 -20 -74 l-20 -33 0
-55 0 -55 -20 -33 c-11 -18 -20 -50 -20 -74 0 -22 -8 -54 -19 -72 -11 -17 -22
-53 -26 -81 -4 -27 -21 -86 -37 -129 -16 -44 -31 -107 -35 -140 -3 -34 -14
-82 -25 -108 -24 -56 -21 -78 12 -95 l25 -13 983 0 983 0 29 -15 c40 -21 46
-52 22 -127 -12 -35 -24 -83 -27 -108 -4 -25 -16 -59 -26 -76 -11 -18 -19 -50
-19 -74 0 -24 -8 -56 -19 -74 -11 -17 -23 -53 -27 -81 -4 -27 -13 -64 -20 -82
-8 -18 -14 -52 -14 -77 0 -26 -8 -59 -19 -78 -11 -18 -23 -55 -27 -83 -3 -27
-19 -84 -34 -125 -15 -41 -31 -97 -35 -125 -4 -27 -15 -64 -26 -81 -11 -18
-19 -50 -19 -72 0 -24 -9 -56 -20 -74 l-20 -33 0 -55 0 -55 -20 -33 c-11 -18
-20 -50 -20 -74 0 -22 -8 -54 -19 -72 -11 -17 -23 -53 -27 -81 -4 -27 -13 -64
-20 -82 -8 -18 -14 -52 -14 -77 0 -26 -8 -59 -19 -78 -11 -18 -23 -55 -27 -83
-3 -27 -19 -84 -34 -125 -15 -41 -31 -97 -35 -125 -4 -27 -15 -64 -26 -81 -11
-18 -19 -50 -19 -72 0 -24 -9 -56 -20 -74 l-20 -33 0 -55 0 -55 -20 -33 c-11
-18 -20 -50 -20 -74 0 -22 -8 -54 -19 -72 -11 -17 -22 -53 -26 -81 -4 -27 -20
-84 -35 -125 -15 -41 -31 -97 -34 -125 -4 -27 -16 -65 -27 -83 l-19 -33 0 -50
c0 -28 -6 -62 -14 -77 -7 -15 -17 -49 -21 -77 -4 -27 -15 -64 -26 -81 -11 -18
-19 -50 -19 -72 0 -24 -9 -56 -20 -74 l-20 -33 0 -55 0 -55 -20 -33 c-12 -19
-20 -50 -20 -75 0 -23 -7 -53 -16 -66 -9 -12 -22 -48 -29 -79 -8 -31 -19 -76
-26 -99 l-13 -43 12 -12 13 -13 2124 -3 2125 -2 39 36 40 35 11 57 c5 31 17
77 25 102 8 25 15 64 15 87 0 23 9 57 19 75 11 18 23 56 27 83 3 28 19 84 34
125 15 41 31 98 34 125 4 28 16 65 27 83 l19 33 0 50 c0 28 6 62 14 77 7 15
17 50 21 77 4 28 15 64 26 81 11 18 19 50 19 74 0 24 8 56 19 74 11 17 23 53
27 81 4 27 13 64 20 82 8 18 14 52 14 77 0 26 8 59 19 78 11 18 23 56 27 83 3
28 19 84 34 125 15 41 31 98 35 125 4 28 15 64 26 81 11 18 19 50 19 72 0 24
9 56 20 74 l20 33 0 55 0 55 20 33 c11 18 20 50 20 74 0 22 8 54 19 72 11 17
22 54 26 81 4 28 20 84 36 127 15 42 33 113 39 158 6 45 24 116 39 158 16 43
32 100 36 127 4 28 15 64 26 81 11 18 19 50 19 72 0 24 9 56 20 74 l20 33 0
55 0 55 20 33 c11 18 20 50 20 74 0 22 8 54 19 72 11 17 22 54 26 81 4 28 20
84 35 125 15 41 31 98 34 125 4 28 16 65 27 83 10 18 19 49 19 69 0 19 8 57
17 84 l18 48 -13 13 -13 13 -2131 3 -2131 2 -14 11 c-21 18 -15 63 21 172 19
56 38 122 41 147 4 25 16 59 26 76 11 17 19 50 19 72 0 24 9 56 20 74 l20 33
0 55 0 55 20 33 c11 18 20 50 20 74 0 22 8 54 19 72 11 17 22 54 26 81 4 28
20 84 36 127 15 42 33 113 39 158 6 45 24 116 39 158 16 43 32 100 36 127 4
28 15 64 26 81 11 18 19 50 19 72 0 24 9 56 20 74 l20 33 0 55 0 55 21 34 21
34 2 71 c3 77 -5 97 -38 94 -11 -2 -464 -5 -1006 -8z"/>
<path d="M1651 3804 l-40 -35 -11 -57 c-5 -31 -17 -77 -25 -102 -8 -25 -15
-64 -15 -87 0 -23 -9 -57 -19 -75 -11 -18 -23 -55 -27 -83 -3 -27 -19 -84 -34
-125 -15 -41 -31 -97 -35 -125 -4 -27 -15 -64 -26 -81 -11 -18 -19 -50 -19
-72 0 -24 -9 -56 -20 -74 l-20 -33 0 -55 0 -55 -20 -33 c-11 -18 -20 -50 -20
-74 0 -22 -8 -54 -19 -72 -11 -17 -22 -53 -26 -81 -4 -27 -20 -84 -36 -127
-15 -42 -33 -113 -39 -158 -6 -45 -24 -116 -39 -158 -16 -43 -32 -99 -36 -127
-4 -27 -15 -64 -26 -81 -11 -18 -19 -50 -19 -72 0 -24 -9 -56 -20 -74 l-20
-33 0 -55 0 -55 -20 -33 c-11 -18 -20 -50 -20 -74 0 -22 -8 -54 -19 -72 -11
-17 -22 -53 -26 -81 -4 -27 -20 -84 -35 -125 -15 -41 -31 -97 -34 -125 -4 -27
-18 -69 -32 -92 -37 -63 -31 -104 17 -128 l28 -15 1463 0 1463 0 25 13 25 12
3 48 c2 27 12 63 23 80 l19 32 0 55 0 55 20 33 c11 18 20 50 20 74 0 22 8 54
19 72 11 17 22 54 26 81 4 28 20 84 36 127 15 42 33 113 39 158 6 45 24 116
39 158 16 43 32 100 36 127 4 28 15 64 26 81 11 18 19 50 19 72 0 24 9 56 20
74 l20 33 0 55 0 55 20 33 c11 18 20 50 20 74 0 22 8 54 19 72 11 17 22 54 26
81 4 28 20 84 35 125 15 41 31 98 34 125 4 28 16 65 27 83 l19 33 0 50 c0 28
6 62 14 77 7 15 17 50 21 77 4 28 15 64 26 81 11 18 19 50 19 74 0 24 8 56 19
74 11 17 23 53 27 81 4 27 13 64 20 82 8 18 14 53 14 77 0 27 9 62 22 87 11
23 23 64 26 91 l5 50 -14 9 c-8 5 -656 9 -1481 9 l-1468 0 -39 -36z"/>
</g>
</svg>
