<?xml version="1.0" standalone="no"?>
<svg version="1.0" xmlns="http://www.w3.org/2000/svg"
 width="898" height="240" viewBox="0 0 5388.000000 1440.000000"
 preserveAspectRatio="xMidYMid meet">
<g transform="translate(0.000000,1440.000000) scale(0.100000,-0.100000)"
fill="#2F456C" stroke="none">
<path d="M11508 13189 c-12 -6 -18 -22 -18 -44 0 -18 -6 -46 -14 -62 -8 -15
-22 -57 -31 -93 -9 -36 -23 -92 -31 -125 -8 -33 -22 -73 -30 -88 -8 -16 -14
-43 -14 -60 0 -18 -7 -41 -15 -51 -8 -11 -15 -41 -15 -66 0 -25 -7 -55 -15
-66 -8 -10 -15 -34 -15 -52 0 -18 -6 -43 -14 -55 -8 -12 -17 -40 -20 -62 -4
-22 -14 -62 -23 -89 -15 -49 -15 -50 7 -68 21 -17 52 -18 490 -18 l467 0 27
40 c14 22 26 53 26 69 0 16 6 42 14 58 14 26 22 56 61 213 8 36 22 92 31 125
8 33 22 87 30 120 8 33 22 73 30 88 8 16 14 43 14 60 0 18 7 41 15 51 8 11 15
37 15 59 0 21 8 52 18 69 34 58 34 58 -497 58 -305 0 -482 -4 -493 -11z"/>
<path d="M18666 12823 c-4 -5 -44 -11 -89 -15 -45 -4 -129 -11 -187 -17 -58
-5 -141 -13 -185 -17 -44 -4 -93 -14 -110 -22 -16 -9 -59 -20 -95 -24 -36 -5
-85 -11 -110 -14 -25 -3 -53 -13 -63 -22 -10 -9 -41 -20 -70 -24 -29 -4 -78
-11 -109 -16 -31 -4 -65 -16 -76 -25 -10 -9 -34 -22 -53 -29 -19 -6 -46 -20
-60 -30 -14 -11 -53 -23 -86 -28 -38 -5 -76 -18 -100 -34 -21 -14 -44 -26 -52
-26 -14 0 -34 -12 -111 -64 -14 -9 -59 -39 -100 -66 -135 -89 -169 -114 -221
-162 -28 -26 -59 -50 -70 -53 -11 -4 -27 -21 -36 -38 -9 -18 -40 -56 -70 -85
-29 -29 -53 -57 -53 -62 0 -5 -25 -35 -55 -67 -31 -32 -58 -69 -62 -83 -3 -14
-18 -46 -34 -71 -16 -25 -29 -52 -29 -60 0 -8 -12 -32 -27 -54 -14 -21 -32
-68 -40 -103 -7 -36 -22 -80 -33 -97 -13 -21 -20 -50 -20 -81 0 -27 -5 -65
-11 -84 -12 -38 -24 -107 -40 -241 -14 -122 10 -538 34 -575 4 -7 11 -41 16
-78 6 -39 18 -78 31 -96 12 -17 25 -57 30 -89 5 -36 18 -74 34 -98 14 -21 26
-44 26 -53 0 -8 14 -35 30 -60 16 -25 30 -52 30 -60 0 -20 67 -120 86 -127 8
-3 21 -17 28 -32 26 -50 236 -248 309 -293 39 -23 83 -53 98 -66 15 -12 46
-29 70 -37 23 -8 64 -35 90 -60 27 -25 56 -45 65 -45 9 0 31 -8 48 -19 17 -10
48 -24 68 -30 20 -7 42 -19 48 -27 7 -7 27 -14 45 -14 19 0 46 -6 62 -14 96
-48 144 -67 186 -72 28 -4 66 -19 90 -35 30 -21 54 -29 86 -29 26 0 57 -8 77
-20 18 -12 63 -27 100 -35 37 -8 72 -19 77 -24 6 -6 25 -11 43 -11 18 0 46 -7
63 -15 17 -8 45 -22 62 -30 17 -8 43 -15 59 -15 16 0 42 -7 59 -15 17 -8 45
-22 62 -30 17 -8 43 -15 59 -15 16 0 41 -6 57 -14 56 -28 138 -64 160 -71 11
-3 27 -12 33 -20 7 -8 29 -15 49 -15 30 0 44 -8 76 -40 23 -23 56 -45 77 -51
48 -12 170 -129 223 -213 62 -100 89 -186 88 -291 -1 -109 -11 -182 -28 -210
-7 -11 -15 -32 -19 -46 -3 -15 -29 -51 -57 -80 -28 -30 -57 -66 -65 -81 -9
-17 -27 -31 -51 -37 -21 -6 -45 -20 -53 -31 -9 -12 -35 -26 -59 -31 -23 -5
-55 -19 -70 -30 -16 -11 -55 -24 -93 -29 -37 -5 -90 -19 -118 -30 -46 -18 -82
-21 -304 -26 -162 -4 -299 -1 -386 6 -74 7 -178 13 -231 15 -71 1 -102 6 -120
18 -14 11 -43 17 -76 17 -28 0 -64 5 -80 11 -15 6 -55 15 -88 19 -75 9 -151
28 -188 46 -16 8 -41 14 -57 14 -16 0 -42 7 -59 15 -17 8 -45 22 -62 30 -17 8
-43 15 -59 15 -16 0 -42 7 -59 15 -17 8 -45 22 -62 30 -17 8 -46 15 -64 15
-26 0 -39 7 -55 30 -16 23 -29 30 -55 30 -18 0 -48 7 -67 16 -18 9 -50 25 -70
35 -20 11 -46 19 -57 19 -21 0 -22 -2 -41 -205 -26 -280 -32 -335 -40 -405 -5
-41 -18 -163 -30 -270 -12 -107 -26 -233 -31 -280 -22 -191 -22 -233 -3 -247
10 -7 32 -13 49 -13 17 0 39 -6 50 -14 11 -7 40 -16 65 -18 58 -6 137 -26 173
-44 16 -8 42 -14 59 -14 17 0 54 -6 82 -14 68 -19 148 -35 222 -45 34 -5 67
-12 74 -16 7 -5 77 -14 154 -22 154 -15 245 -26 376 -42 47 -6 243 -13 436
-17 427 -9 832 8 904 36 25 10 77 21 115 24 153 13 202 22 219 39 10 10 33 17
54 17 68 0 155 19 176 39 14 12 41 20 78 23 41 3 68 12 96 32 26 17 61 30 99
36 36 5 74 18 97 34 22 14 46 26 55 26 9 0 36 14 61 30 25 16 52 30 59 30 14
0 34 12 111 64 14 9 62 41 108 71 45 30 85 62 89 70 3 9 17 22 32 29 14 8 76
64 137 124 100 100 178 203 233 310 16 31 38 75 57 115 23 46 43 85 61 120 9
17 22 44 30 59 7 14 13 41 13 60 0 19 5 39 11 45 13 13 37 111 49 198 4 33 13
73 20 90 18 46 24 422 11 645 -10 170 -14 199 -32 223 -12 16 -25 55 -29 88
-5 34 -17 70 -29 85 -13 17 -21 41 -21 65 0 51 -11 78 -72 167 -28 42 -55 91
-59 108 -6 18 -43 66 -93 116 -46 47 -87 95 -91 107 -3 11 -20 28 -36 36 -16
9 -68 53 -116 100 -61 59 -101 89 -131 100 -25 8 -66 35 -93 60 -26 25 -57 45
-67 45 -10 0 -39 13 -63 30 -24 16 -51 30 -60 30 -9 0 -36 13 -60 30 -24 16
-51 30 -60 30 -8 0 -24 7 -35 15 -10 8 -33 15 -51 15 -17 0 -45 7 -62 15 -17
8 -46 22 -63 31 -49 24 -296 104 -322 104 -12 0 -31 7 -42 15 -10 8 -33 15
-51 15 -17 0 -46 7 -65 16 -79 40 -91 44 -121 44 -18 0 -41 7 -51 15 -11 8
-41 15 -66 15 -25 0 -55 7 -66 15 -10 8 -33 15 -51 15 -17 0 -45 7 -62 15 -17
8 -45 22 -62 30 -17 8 -43 15 -59 15 -16 0 -42 7 -59 15 -17 8 -45 22 -62 30
-17 8 -46 15 -64 15 -26 0 -39 7 -55 30 -17 24 -29 30 -59 30 -30 0 -44 7 -76
40 -22 23 -56 45 -77 50 -81 22 -192 167 -210 274 -14 88 -2 303 20 337 69
108 96 141 129 159 21 12 63 39 93 61 75 55 128 79 174 79 23 0 47 7 58 17 19
17 57 24 263 44 250 25 931 7 985 -26 7 -4 40 -11 74 -15 61 -7 92 -14 216
-45 160 -40 187 -48 213 -61 16 -8 44 -14 62 -14 19 0 37 -4 40 -10 3 -5 23
-14 45 -20 21 -6 45 -16 52 -24 19 -19 48 -32 85 -39 39 -8 63 12 64 51 0 15
7 122 15 237 8 116 18 260 22 320 4 61 10 115 14 121 4 5 12 107 18 225 6 117
16 231 22 252 9 31 8 44 -5 73 -9 19 -25 37 -34 40 -10 3 -31 12 -46 20 -16 7
-43 14 -61 14 -18 0 -37 5 -43 11 -12 12 -115 38 -183 46 -25 3 -54 12 -65 19
-11 8 -43 14 -71 14 -28 0 -71 7 -94 15 -23 8 -59 15 -80 15 -21 0 -57 7 -80
15 -23 8 -77 15 -119 16 -42 0 -110 5 -151 10 -167 22 -330 31 -636 35 -176 3
-324 1 -328 -3z"/>
<path d="M49295 12812 c-26 -12 -78 -21 -150 -26 -177 -11 -228 -20 -260 -43
-17 -12 -53 -23 -84 -27 -65 -7 -223 -61 -270 -93 -21 -15 -49 -23 -75 -23
-23 0 -52 -7 -66 -15 -14 -8 -45 -24 -70 -35 -25 -12 -52 -25 -60 -31 -14 -9
-41 -22 -100 -48 -14 -6 -43 -24 -66 -39 -23 -15 -77 -50 -120 -79 -147 -98
-176 -118 -203 -144 -14 -14 -38 -30 -53 -37 -16 -6 -28 -16 -28 -21 0 -6 -12
-17 -26 -24 -36 -19 -372 -355 -390 -389 -8 -16 -19 -28 -24 -28 -5 0 -19 -18
-30 -40 -11 -22 -25 -40 -30 -40 -5 0 -17 -14 -26 -31 -8 -17 -38 -54 -65 -82
-27 -28 -52 -62 -56 -76 -3 -14 -18 -46 -33 -71 -15 -25 -30 -57 -34 -73 -4
-15 -24 -44 -46 -65 -33 -30 -40 -44 -40 -74 0 -29 -6 -41 -30 -58 -23 -17
-30 -29 -30 -56 0 -30 -17 -72 -72 -179 -41 -80 -48 -99 -48 -126 0 -16 -13
-57 -30 -91 -16 -34 -30 -74 -30 -88 0 -36 -38 -182 -50 -194 -6 -6 -10 -26
-10 -45 0 -19 -6 -57 -14 -85 -16 -55 -32 -207 -47 -436 -16 -246 -14 -311 27
-720 13 -137 21 -180 35 -199 11 -13 19 -40 19 -61 0 -89 63 -315 99 -355 12
-13 20 -41 23 -76 3 -41 13 -70 35 -105 17 -27 37 -69 43 -94 11 -42 22 -68
65 -150 10 -19 29 -56 42 -81 12 -26 29 -49 37 -52 8 -3 20 -23 26 -43 7 -21
29 -62 49 -92 20 -30 60 -90 89 -135 29 -45 74 -105 101 -133 27 -28 56 -65
65 -81 8 -17 22 -33 30 -36 8 -3 33 -33 56 -66 22 -34 55 -68 72 -77 17 -9 61
-46 98 -83 37 -37 83 -77 101 -89 19 -12 65 -53 103 -92 49 -49 81 -73 108
-81 23 -6 60 -30 91 -59 29 -28 68 -54 87 -60 20 -5 51 -21 70 -35 19 -14 43
-25 54 -25 12 0 39 -14 60 -30 22 -17 49 -30 60 -30 12 0 39 -14 60 -30 22
-17 48 -30 59 -30 10 0 37 -13 60 -29 26 -18 62 -32 92 -36 28 -4 70 -17 95
-30 25 -12 74 -30 110 -39 36 -10 88 -23 115 -30 75 -20 153 -36 220 -46 33
-5 77 -14 98 -20 47 -14 484 -18 752 -7 185 8 203 11 235 32 27 18 55 25 120
30 64 5 94 13 120 30 21 14 58 25 95 29 33 4 83 17 110 31 28 13 66 26 86 30
21 3 42 12 49 20 6 8 33 22 58 31 26 10 59 26 74 36 15 10 42 24 60 30 18 6
45 20 60 30 15 10 42 24 60 30 33 12 72 35 143 86 22 16 62 42 88 58 26 16 64
41 84 57 50 38 77 35 107 -11 31 -49 723 -742 741 -742 17 0 95 81 95 99 0 7
-135 148 -300 313 -165 164 -300 302 -300 306 0 4 -29 38 -65 76 -66 69 -75
93 -52 131 14 23 69 76 142 136 27 23 61 58 76 78 15 20 36 45 47 56 10 11 27
35 36 53 9 17 20 32 25 32 5 0 20 19 34 43 14 23 44 59 66 81 24 22 45 54 51
76 6 22 34 64 65 99 30 34 55 69 55 78 0 9 13 37 29 62 16 25 31 58 35 74 4
15 24 44 46 65 31 28 40 45 40 70 0 29 19 77 75 182 38 73 45 92 45 121 0 16
14 58 30 92 17 35 30 76 30 91 0 15 6 37 14 49 8 12 17 40 20 62 4 22 18 72
32 112 14 43 24 94 24 130 0 32 5 74 12 93 28 85 49 468 42 745 -5 191 -9 237
-24 271 -12 28 -20 81 -25 160 -5 86 -14 139 -32 192 -14 41 -28 100 -33 133
-5 34 -18 72 -31 91 -14 19 -26 54 -30 89 -4 34 -16 70 -29 88 -12 18 -25 57
-30 90 -5 36 -18 74 -34 98 -14 21 -26 44 -26 53 0 8 -14 35 -30 60 -16 25
-30 52 -30 60 0 9 -25 54 -56 100 -31 47 -61 97 -66 113 -6 15 -18 32 -29 37
-10 6 -23 28 -29 50 -6 22 -20 45 -31 51 -11 6 -40 41 -65 79 -24 37 -60 83
-80 102 -19 18 -47 52 -60 75 -14 22 -31 44 -39 47 -8 3 -31 30 -51 60 -20 31
-46 58 -58 62 -11 4 -57 43 -101 88 -44 44 -94 90 -110 100 -17 11 -52 40 -78
65 -26 25 -55 50 -65 55 -9 4 -54 33 -98 62 -45 30 -90 54 -101 54 -12 0 -47
25 -79 55 -33 30 -75 59 -94 65 -20 5 -51 21 -70 35 -19 14 -40 25 -48 25 -8
0 -29 8 -46 19 -17 10 -58 26 -91 35 -53 15 -106 37 -198 82 -16 8 -43 14 -60
14 -18 0 -41 7 -51 15 -11 8 -41 15 -66 15 -25 0 -55 7 -66 15 -10 8 -35 15
-54 15 -19 0 -44 7 -54 15 -12 9 -41 15 -70 15 -28 0 -67 5 -86 12 -49 16
-233 28 -505 34 -208 4 -234 2 -270 -14z m731 -168 c32 -11 66 -15 100 -11 37
4 58 1 74 -10 22 -16 116 -41 185 -49 37 -5 68 -16 138 -50 16 -8 43 -14 60
-14 18 0 41 -7 51 -15 11 -8 29 -15 40 -15 12 0 39 -14 60 -30 22 -17 49 -30
60 -30 12 0 39 -14 60 -30 22 -17 47 -30 56 -30 10 0 35 -12 56 -26 21 -15 53
-31 70 -36 18 -4 48 -21 67 -36 20 -15 62 -43 94 -62 32 -19 80 -57 108 -83
27 -26 63 -50 78 -54 16 -3 35 -16 44 -29 8 -13 24 -26 35 -30 27 -8 223 -200
251 -244 12 -19 42 -55 68 -80 25 -25 54 -60 63 -77 9 -18 20 -33 25 -33 5 0
18 -15 30 -32 12 -18 47 -72 79 -119 133 -199 162 -245 162 -259 0 -8 14 -35
30 -60 16 -25 30 -52 30 -60 0 -9 11 -32 25 -53 14 -20 29 -57 34 -82 5 -25
14 -51 20 -59 7 -8 21 -43 31 -77 11 -34 28 -71 39 -83 11 -12 21 -42 25 -71
14 -127 19 -151 34 -168 16 -18 24 -62 38 -222 4 -45 15 -96 25 -117 16 -32
20 -75 28 -280 10 -283 1 -612 -17 -645 -7 -12 -12 -53 -12 -91 0 -38 -7 -89
-15 -112 -8 -23 -15 -66 -15 -94 0 -30 -6 -60 -15 -72 -8 -10 -15 -34 -15 -52
0 -18 -6 -43 -14 -55 -8 -12 -17 -40 -21 -62 -8 -49 -77 -258 -99 -302 -41
-83 -46 -97 -46 -128 0 -26 -7 -39 -30 -55 -24 -17 -30 -29 -30 -57 0 -29 -9
-46 -45 -84 -25 -26 -45 -56 -45 -65 0 -10 -13 -38 -29 -63 -16 -25 -31 -58
-35 -73 -3 -14 -28 -50 -55 -80 -27 -29 -56 -70 -64 -91 -9 -20 -21 -37 -26
-37 -6 0 -18 -15 -27 -32 -25 -49 -370 -388 -394 -388 -22 0 -630 597 -630
618 0 6 -84 95 -187 199 -104 104 -203 210 -220 236 -30 43 -36 47 -72 47 -31
0 -44 -6 -60 -27 -46 -58 -46 -60 119 -220 83 -81 161 -163 172 -182 12 -18
101 -113 198 -210 97 -97 187 -192 200 -211 13 -19 93 -104 177 -188 126 -126
153 -158 153 -182 0 -22 -7 -32 -34 -47 -29 -15 -118 -73 -201 -130 -112 -77
-169 -109 -218 -124 -32 -10 -65 -23 -73 -30 -8 -6 -34 -15 -59 -20 -25 -5
-57 -17 -72 -28 -36 -27 -191 -79 -271 -91 -35 -6 -97 -22 -138 -36 -50 -16
-115 -28 -192 -34 -64 -6 -160 -15 -212 -21 -173 -21 -596 -8 -663 19 -16 7
-52 12 -81 12 -30 0 -60 6 -72 15 -10 8 -35 15 -54 15 -19 0 -44 7 -54 15 -11
8 -41 15 -66 15 -25 0 -55 7 -66 15 -10 8 -33 15 -51 15 -17 0 -44 6 -60 14
-56 28 -138 64 -160 71 -11 3 -27 12 -33 20 -7 8 -29 15 -49 15 -20 0 -45 7
-55 15 -11 8 -29 15 -41 15 -11 0 -37 14 -58 31 -20 17 -54 35 -73 41 -20 5
-58 30 -84 54 -27 25 -65 50 -84 55 -21 6 -61 33 -92 62 -31 29 -67 58 -80 65
-13 7 -24 17 -24 23 0 5 -21 19 -47 30 -54 23 -278 238 -319 306 -14 22 -31
44 -39 46 -7 3 -32 33 -54 66 -23 33 -50 65 -61 71 -11 6 -24 28 -30 50 -6 22
-20 44 -30 50 -24 13 -90 109 -90 130 0 9 -27 56 -60 105 -33 50 -60 97 -60
105 0 9 -12 33 -27 55 -14 21 -30 58 -34 82 -5 24 -20 60 -34 80 -14 21 -25
45 -25 53 0 8 -12 33 -27 55 -18 26 -30 60 -34 98 -4 34 -15 67 -25 78 -17 18
-26 58 -41 179 -3 25 -12 53 -21 63 -17 19 -27 86 -40 262 -5 71 -14 122 -26
143 -15 29 -16 64 -12 360 4 334 14 485 35 535 6 16 11 52 11 81 0 30 6 60 15
72 8 10 15 36 15 56 0 20 5 49 11 65 6 15 15 57 20 93 5 36 20 86 33 111 13
26 27 66 31 90 6 39 28 97 71 182 8 16 14 44 14 62 0 26 7 39 30 55 24 17 30
29 30 59 0 21 6 44 14 50 8 7 22 33 30 58 9 25 36 67 61 94 25 26 45 56 45 65
0 20 80 144 92 144 5 0 17 20 28 45 11 25 40 66 65 92 26 27 53 60 60 74 8 15
21 29 29 32 8 3 29 27 46 54 34 50 156 173 172 173 6 0 40 30 78 68 37 37 91
83 120 102 29 19 64 47 79 61 14 15 36 30 49 34 12 3 26 15 32 25 5 10 26 24
46 30 38 13 80 38 150 90 23 16 50 30 61 30 10 0 37 13 59 29 21 15 57 31 79
33 22 3 57 17 78 31 21 14 51 28 66 32 16 3 37 15 47 26 11 12 30 19 56 19 21
0 85 16 141 35 65 22 133 37 185 41 56 5 89 12 100 23 25 26 265 40 603 36
242 -3 305 -7 345 -21z"/>
<path d="M36207 12768 c-9 -7 -21 -34 -25 -59 -5 -25 -21 -63 -35 -84 -15 -22
-27 -47 -27 -55 0 -9 -7 -25 -15 -36 -8 -10 -15 -34 -15 -52 0 -18 -18 -69
-39 -115 -22 -45 -42 -102 -46 -127 -4 -25 -20 -66 -36 -91 -16 -25 -29 -52
-29 -60 0 -9 -7 -24 -15 -35 -8 -10 -15 -34 -15 -52 0 -19 -16 -65 -35 -104
-19 -39 -41 -96 -50 -127 -15 -50 -41 -115 -81 -194 -8 -16 -14 -41 -14 -57 0
-31 -31 -107 -66 -160 -12 -19 -26 -57 -29 -85 -4 -27 -15 -66 -25 -85 -41
-79 -60 -128 -60 -152 0 -29 -32 -106 -66 -158 -12 -19 -26 -57 -29 -85 -4
-27 -15 -66 -25 -85 -41 -80 -60 -128 -60 -153 0 -25 -21 -75 -75 -177 -38
-73 -45 -92 -45 -121 0 -16 -13 -58 -30 -92 -16 -35 -30 -76 -30 -91 0 -23
-19 -68 -72 -171 -41 -80 -48 -99 -48 -126 0 -16 -18 -66 -39 -112 -22 -45
-42 -102 -46 -127 -4 -25 -20 -66 -36 -91 -16 -25 -29 -52 -29 -60 0 -9 -7
-24 -15 -35 -8 -10 -15 -34 -15 -52 0 -18 -16 -66 -35 -105 -19 -40 -44 -103
-56 -142 -12 -38 -27 -81 -34 -95 -34 -65 -55 -119 -55 -143 0 -15 -17 -64
-39 -110 -21 -45 -46 -109 -56 -142 -10 -33 -24 -71 -31 -85 -34 -68 -54 -119
-54 -142 0 -29 -32 -106 -66 -158 -12 -19 -26 -57 -29 -85 -4 -27 -15 -66 -25
-85 -41 -80 -60 -128 -60 -153 0 -24 -20 -72 -73 -174 -39 -76 -47 -96 -47
-124 0 -16 -13 -58 -30 -92 -16 -35 -30 -76 -30 -91 0 -23 -20 -72 -73 -173
-39 -76 -47 -96 -47 -124 0 -16 -18 -66 -39 -112 -22 -45 -42 -102 -46 -127
-4 -25 -20 -66 -36 -91 -16 -25 -29 -52 -29 -60 0 -9 -7 -24 -15 -35 -8 -10
-15 -34 -15 -52 0 -18 -17 -67 -37 -109 -47 -96 -41 -109 43 -105 73 5 114 36
114 89 0 18 18 70 39 116 22 45 42 102 46 127 4 25 20 66 36 91 16 25 29 52
29 60 0 9 7 24 15 35 8 10 15 34 15 52 0 18 16 66 35 105 19 40 44 104 56 142
12 39 27 81 34 95 34 64 55 119 55 142 0 29 32 106 66 158 12 19 26 58 29 85
4 28 15 66 25 85 41 80 60 128 60 153 0 24 19 69 72 172 41 80 48 99 48 126 0
16 14 58 30 92 17 35 30 77 30 94 0 19 10 39 28 56 l28 27 1555 0 c855 0 1559
0 1565 0 22 0 91 -133 96 -186 3 -30 14 -64 27 -82 12 -17 39 -86 61 -152 22
-66 49 -135 62 -152 13 -19 25 -55 29 -89 4 -36 16 -70 33 -95 14 -21 26 -46
26 -54 0 -8 12 -33 27 -55 17 -26 30 -60 34 -95 4 -36 17 -72 38 -104 23 -37
31 -62 31 -96 0 -33 7 -55 25 -80 14 -19 25 -41 25 -50 0 -8 12 -33 27 -55 18
-26 30 -60 34 -96 4 -36 16 -71 33 -95 14 -21 26 -46 26 -54 0 -8 12 -33 27
-55 18 -26 30 -60 34 -97 4 -33 16 -69 29 -87 12 -17 25 -57 30 -89 5 -37 21
-79 46 -119 l37 -63 67 0 c53 0 69 4 74 16 11 28 6 51 -14 77 -12 14 -38 80
-60 147 -22 66 -49 135 -62 152 -13 19 -25 55 -29 89 -4 36 -16 70 -33 95 -14
21 -26 46 -26 54 0 8 -12 33 -27 55 -17 26 -30 60 -34 95 -4 36 -17 72 -38
104 -23 37 -31 62 -31 96 0 33 -7 55 -25 80 -14 19 -25 41 -25 50 0 8 -12 33
-27 55 -18 26 -30 60 -34 96 -4 36 -16 71 -33 95 -14 21 -26 46 -26 56 0 9
-11 29 -24 45 -16 20 -25 44 -28 85 -3 40 -13 69 -32 99 -17 25 -31 64 -36 99
-5 35 -19 74 -34 97 -14 21 -26 45 -26 53 0 8 -12 33 -27 55 -18 26 -30 60
-34 97 -4 33 -16 69 -28 87 -12 17 -39 85 -61 151 -22 66 -49 134 -60 151 -12
16 -25 56 -30 88 -5 36 -18 74 -34 98 -14 21 -26 45 -26 53 0 8 -12 33 -27 55
-18 26 -30 60 -34 97 -4 33 -16 69 -28 87 -12 17 -39 85 -61 151 -22 66 -49
134 -60 151 -12 16 -25 56 -30 88 -5 36 -18 74 -34 98 -14 21 -26 45 -26 53 0
8 -12 33 -27 55 -18 26 -30 60 -34 96 -4 35 -16 71 -34 97 -18 27 -29 61 -34
100 -4 37 -15 69 -29 87 -12 15 -22 35 -22 44 0 9 -12 34 -27 56 -18 26 -30
60 -34 96 -4 36 -16 71 -33 95 -14 21 -26 46 -26 54 0 8 -12 33 -27 55 -18 26
-30 60 -34 97 -4 33 -16 69 -29 87 -12 18 -25 57 -30 90 -5 36 -18 74 -34 98
-14 21 -26 45 -26 53 0 8 -12 33 -27 55 -18 26 -30 60 -34 96 -4 36 -16 71
-33 95 -14 21 -26 46 -26 56 0 9 -11 29 -24 45 -16 20 -25 44 -28 85 -3 40
-13 69 -32 99 -17 25 -31 64 -36 99 -5 35 -19 74 -34 97 -14 21 -26 45 -26 53
0 8 -12 33 -27 55 -18 26 -30 60 -34 97 -4 34 -16 69 -29 88 -12 17 -39 85
-60 150 -21 66 -50 136 -64 157 -17 25 -26 51 -26 78 0 22 -9 56 -20 75 -11
19 -25 46 -31 60 -28 63 -44 93 -65 116 -21 22 -31 24 -112 24 -55 0 -95 -5
-105 -12z m157 -223 c5 -22 18 -53 29 -69 12 -17 24 -55 28 -85 4 -37 17 -73
38 -105 23 -37 31 -62 31 -96 0 -33 7 -55 25 -80 14 -19 25 -41 25 -50 0 -8
12 -33 27 -55 18 -26 30 -60 34 -97 4 -33 16 -69 28 -87 12 -17 39 -85 61
-151 22 -66 49 -135 62 -152 13 -19 25 -55 29 -89 4 -36 16 -70 33 -95 14 -21
26 -46 26 -54 0 -8 12 -33 27 -55 18 -26 30 -60 34 -96 4 -35 16 -71 34 -97
18 -27 29 -61 34 -100 4 -37 15 -69 29 -87 12 -15 22 -35 22 -44 0 -9 12 -34
27 -56 18 -26 30 -60 34 -96 4 -36 16 -71 33 -95 14 -21 26 -46 26 -56 0 -9
11 -29 24 -45 16 -20 25 -44 28 -85 3 -40 13 -69 32 -99 17 -25 31 -64 36 -99
5 -35 19 -74 34 -97 14 -21 26 -45 26 -53 0 -8 12 -33 27 -55 18 -26 30 -60
34 -97 4 -33 16 -69 28 -87 12 -17 39 -85 61 -151 22 -66 49 -134 60 -151 12
-16 25 -56 30 -88 5 -36 18 -74 34 -98 14 -21 26 -45 26 -53 0 -8 12 -33 27
-55 18 -26 30 -60 34 -97 4 -33 16 -69 29 -87 12 -18 25 -57 30 -90 5 -36 18
-74 34 -98 14 -21 26 -45 26 -55 0 -9 11 -30 25 -46 29 -34 32 -57 9 -66 -9
-3 -687 -6 -1508 -6 -1147 0 -1495 3 -1504 12 -18 18 -14 46 13 86 14 20 25
44 25 52 0 9 7 25 15 36 8 10 15 34 15 52 0 28 17 71 72 177 41 80 48 99 48
126 0 16 14 58 30 92 17 35 30 76 30 91 0 24 21 74 75 176 38 73 45 92 45 121
0 17 16 63 35 102 19 40 44 104 56 142 12 39 27 81 34 95 34 64 55 119 55 142
0 29 32 106 66 158 12 19 26 58 29 85 4 28 15 66 25 85 41 80 60 128 60 153 0
24 19 69 72 172 41 80 48 99 48 126 0 16 14 58 30 92 17 35 30 76 30 91 0 23
20 72 73 174 40 75 47 95 47 124 0 16 16 61 35 100 19 39 41 96 50 127 15 50
41 115 81 194 8 16 14 41 14 57 0 31 31 107 66 160 12 19 26 58 29 85 4 28 19
73 33 100 48 96 52 107 52 135 0 58 98 234 128 228 10 -2 20 -19 26 -43z"/>
<path d="M39430 12765 c-14 -17 -9 -110 7 -126 6 -6 395 -9 1041 -9 1020 0
1032 0 1052 -20 20 -20 20 -29 20 -3098 0 -2921 1 -3080 18 -3095 25 -23 72
-38 93 -32 52 17 49 -177 49 3135 l0 3070 33 20 c31 20 53 20 1037 20 928 0
1007 1 1030 17 35 24 40 33 40 75 0 27 -5 40 -19 48 -14 7 -717 10 -2204 10
-1933 0 -2186 -2 -2197 -15z"/>
<path d="M45028 12769 c-17 -9 -18 -171 -18 -3182 0 -1830 4 -3178 9 -3186 13
-21 132 -16 149 6 17 24 18 6343 0 6361 -15 15 -116 15 -140 1z"/>
<path d="M21568 12709 c-17 -9 -18 -49 -18 -615 0 -398 4 -612 10 -625 10 -19
30 -19 776 -19 l765 0 24 -25 25 -24 0 -2546 c0 -1736 3 -2552 10 -2566 10
-19 30 -19 839 -19 l828 0 21 23 22 23 0 2559 c0 2053 2 2560 12 2567 7 4 358
8 780 8 748 0 768 0 778 19 6 13 10 227 10 625 0 588 -1 606 -19 616 -27 14
-4839 14 -4863 -1z"/>
<path d="M27132 12708 c-18 -18 -17 -6397 1 -6421 11 -16 69 -17 830 -17 867
0 863 0 881 45 3 9 6 571 6 1250 0 1089 2 1234 15 1245 12 10 80 12 298 8 242
-4 287 -7 315 -22 19 -10 63 -24 99 -31 36 -8 81 -25 101 -38 21 -14 49 -28
64 -31 40 -9 165 -135 223 -225 28 -43 74 -113 102 -157 29 -43 53 -85 53 -93
0 -8 14 -36 31 -63 21 -33 33 -67 38 -106 4 -37 15 -69 29 -87 12 -15 22 -35
22 -44 0 -9 12 -33 26 -54 16 -24 29 -62 34 -98 5 -32 18 -72 30 -89 12 -17
25 -57 30 -90 5 -33 18 -73 30 -90 12 -17 25 -57 30 -90 5 -33 18 -73 30 -90
12 -17 25 -57 30 -90 5 -33 18 -73 30 -90 12 -17 25 -57 30 -90 5 -35 17 -71
29 -86 12 -15 21 -41 21 -61 0 -19 18 -87 40 -150 22 -64 40 -132 40 -152 0
-21 10 -49 26 -72 17 -25 29 -59 33 -96 5 -35 17 -72 32 -94 13 -20 29 -44 34
-53 9 -15 79 -17 859 -16 798 0 851 1 880 18 40 24 43 45 12 83 -14 17 -26 39
-26 48 0 10 -10 31 -22 46 -14 18 -25 50 -29 87 -5 38 -16 73 -34 100 -16 25
-30 63 -35 99 -5 32 -18 72 -30 89 -12 17 -25 57 -30 89 -5 36 -19 74 -35 99
-18 27 -29 62 -34 100 -4 37 -15 69 -29 87 -12 15 -22 35 -22 45 0 10 -10 30
-22 45 -14 18 -25 50 -29 87 -5 38 -16 73 -34 100 -16 25 -30 63 -35 99 -5 32
-18 72 -30 89 -12 17 -25 57 -30 89 -5 36 -19 74 -35 99 -18 27 -29 62 -34
100 -4 37 -15 69 -29 87 -12 15 -22 35 -22 44 0 9 -12 33 -26 54 -16 23 -29
62 -34 97 -5 35 -18 74 -34 97 -14 21 -26 45 -26 54 0 9 -10 29 -22 44 -14 18
-25 50 -29 87 -5 38 -16 73 -34 100 -16 24 -30 63 -35 98 -5 35 -19 74 -34 97
-14 21 -26 44 -26 53 0 8 -14 35 -30 60 -16 25 -30 51 -30 58 0 57 -259 343
-327 361 -18 5 -45 18 -61 29 -15 11 -43 24 -62 29 -25 6 -36 16 -38 31 -4 28
78 81 128 82 41 1 140 32 172 55 13 8 29 15 38 15 8 0 35 14 59 30 24 17 51
30 59 30 18 0 134 77 145 96 4 7 29 28 55 46 76 51 194 176 255 270 31 47 57
92 57 100 0 7 14 33 30 58 16 25 30 52 30 60 0 8 14 35 30 60 16 25 30 52 30
61 0 8 7 24 15 35 8 10 15 34 15 53 0 19 6 57 14 85 38 135 54 263 62 478 5
124 3 143 -15 184 -15 33 -21 68 -21 118 0 99 -15 181 -40 216 -12 17 -25 57
-30 89 -5 36 -18 74 -34 98 -14 21 -26 45 -26 55 0 10 -13 31 -30 48 -16 17
-30 35 -30 40 0 5 -12 22 -27 39 -16 16 -44 52 -63 80 -38 56 -126 151 -140
151 -4 0 -48 38 -97 85 -58 57 -100 88 -124 95 -20 6 -48 19 -61 30 -14 10
-44 26 -68 34 -25 8 -55 29 -72 50 -23 28 -37 36 -63 36 -32 0 -44 4 -123 44
-19 9 -46 16 -62 16 -16 0 -42 7 -59 15 -17 8 -45 22 -62 30 -17 8 -45 15 -64
15 -18 0 -52 7 -75 15 -23 8 -66 15 -94 15 -32 0 -61 6 -76 17 -16 11 -48 18
-95 19 -38 2 -133 7 -210 12 -221 15 -3258 15 -3273 0z m2413 -1216 c187 -13
320 -29 377 -47 26 -8 62 -15 80 -15 18 0 42 -7 52 -15 11 -8 27 -15 37 -15 9
0 33 -11 54 -25 20 -14 54 -32 75 -39 21 -7 52 -24 69 -37 62 -48 191 -181
191 -197 0 -9 12 -34 27 -55 l27 -39 1 -212 c0 -212 0 -212 -27 -265 -16 -29
-28 -58 -28 -64 0 -43 -188 -251 -243 -269 -18 -6 -39 -17 -47 -24 -27 -23
-88 -44 -128 -44 -23 0 -49 -8 -63 -19 -35 -27 -57 -32 -187 -42 -64 -6 -169
-14 -232 -20 -185 -16 -699 -22 -716 -8 -20 16 -21 1438 -2 1457 14 14 427 10
683 -6z"/>
<path d="M9775 12140 c-14 -27 -25 -64 -25 -83 0 -18 -5 -38 -11 -44 -12 -12
-38 -113 -46 -178 -2 -22 -10 -53 -18 -70 -7 -16 -21 -59 -30 -95 -9 -36 -23
-92 -31 -125 -8 -33 -22 -73 -30 -88 -8 -16 -14 -43 -14 -60 0 -18 -7 -41 -15
-51 -8 -11 -15 -41 -15 -66 0 -25 -7 -55 -15 -66 -8 -10 -15 -34 -15 -52 0
-18 -6 -43 -14 -55 -8 -12 -17 -42 -21 -67 -4 -25 -16 -67 -26 -93 -11 -26
-19 -57 -19 -69 0 -12 -10 -42 -22 -66 -21 -44 -21 -45 -3 -58 27 -20 1402
-21 1428 -1 9 6 21 34 26 60 5 27 14 54 20 60 6 6 11 27 11 47 0 20 5 41 11
47 12 12 38 113 46 178 2 22 10 54 18 70 7 17 21 58 29 93 9 34 23 90 32 125
8 34 22 75 30 90 8 16 14 43 14 60 0 18 7 41 15 51 8 11 15 41 15 66 0 25 7
55 15 66 8 10 15 35 15 55 0 19 5 40 11 46 14 14 40 124 43 178 2 22 10 52 20
67 10 15 16 37 14 50 l-3 23 -707 3 -708 2 -25 -50z"/>
<path d="M6312 10728 c-7 -7 -12 -30 -12 -53 0 -23 -7 -50 -15 -61 -8 -10 -15
-33 -15 -51 0 -17 -6 -44 -14 -60 -14 -26 -23 -58 -61 -215 -9 -35 -22 -90
-31 -123 -8 -33 -22 -87 -30 -120 -8 -33 -22 -73 -30 -88 -8 -16 -14 -43 -14
-60 0 -18 -7 -41 -15 -51 -17 -23 -19 -69 -5 -97 10 -18 26 -19 484 -19 l474
0 25 29 c14 17 28 49 32 77 4 26 15 68 25 93 10 25 21 66 25 91 4 25 13 55 21
67 8 12 14 37 14 55 0 18 7 42 15 52 8 11 15 41 15 66 0 25 7 55 15 66 8 10
15 34 15 52 0 18 6 43 14 55 8 12 17 42 21 67 4 25 18 75 31 111 27 75 29 100
12 117 -17 17 -979 17 -996 0z"/>
<path d="M7073 9722 c-15 -9 -53 -115 -53 -147 0 -11 -7 -30 -15 -41 -8 -10
-15 -35 -15 -54 0 -19 -7 -44 -15 -54 -8 -11 -15 -41 -15 -66 0 -25 -7 -55
-15 -66 -8 -10 -15 -33 -15 -51 0 -17 -6 -44 -14 -60 -8 -15 -22 -57 -31 -93
-9 -36 -23 -92 -31 -125 -8 -33 -22 -73 -30 -88 -8 -16 -14 -41 -14 -56 0 -37
-38 -183 -50 -195 -6 -6 -10 -24 -10 -42 0 -18 -6 -45 -14 -61 -8 -15 -22 -57
-30 -93 -8 -36 -18 -75 -22 -87 -4 -14 1 -28 15 -42 21 -21 24 -21 699 -21
514 0 681 -3 690 -12 17 -17 14 -89 -3 -112 -8 -11 -15 -34 -15 -52 0 -18 -6
-45 -14 -61 -8 -15 -22 -55 -30 -88 -8 -33 -22 -89 -31 -125 -9 -36 -23 -78
-31 -93 -8 -16 -14 -41 -14 -56 0 -37 -38 -183 -50 -195 -6 -6 -10 -26 -10
-45 0 -20 -7 -45 -15 -55 -8 -11 -15 -41 -15 -66 0 -25 -7 -55 -15 -66 -8 -10
-15 -33 -15 -51 0 -17 -6 -44 -14 -60 -8 -15 -22 -56 -30 -90 -9 -35 -23 -91
-32 -125 -8 -35 -22 -76 -30 -91 -8 -16 -14 -41 -14 -56 0 -37 -38 -183 -50
-195 -6 -6 -10 -26 -10 -46 0 -20 -5 -41 -11 -47 -13 -13 -37 -113 -48 -199
-5 -34 -11 -66 -15 -73 -5 -8 251 -11 1003 -11 l1010 0 18 23 c28 36 50 87 67
152 8 33 22 89 31 125 9 36 23 78 31 93 8 16 14 43 14 60 0 18 7 41 15 51 8
11 15 41 15 66 0 25 7 55 15 66 8 10 15 33 15 51 0 17 6 44 14 60 8 15 22 57
31 93 9 36 23 92 31 125 8 33 22 73 30 88 8 16 14 41 14 56 0 37 38 183 50
195 6 6 10 26 10 45 0 20 7 45 15 55 8 11 15 41 15 66 0 25 7 55 15 66 8 10
15 33 15 51 0 17 6 44 14 60 8 15 22 57 31 93 9 36 23 92 31 125 8 33 24 77
35 97 22 43 17 83 -11 98 -12 6 -384 10 -1004 10 -973 0 -986 0 -1006 20 -25
25 -25 41 -1 88 11 20 27 65 35 100 9 34 23 90 32 125 8 34 22 75 30 90 8 16
14 41 14 56 0 37 38 183 50 195 6 6 10 26 10 45 0 20 7 45 15 55 8 11 15 41
15 66 0 25 7 55 15 66 8 10 15 33 15 51 0 17 6 44 14 60 8 15 22 56 30 91 9
34 23 90 32 125 8 34 24 80 35 102 17 34 19 45 9 70 -6 16 -17 33 -23 37 -16
10 -1379 10 -1394 0z"/>
<path d="M10452 9288 c-7 -7 -12 -30 -12 -53 0 -23 -7 -50 -15 -61 -8 -10 -15
-33 -15 -51 0 -17 -6 -44 -14 -60 -8 -15 -22 -56 -30 -90 -9 -35 -23 -91 -32
-125 -8 -35 -22 -76 -30 -91 -8 -16 -14 -41 -14 -56 0 -37 -38 -183 -50 -195
-6 -6 -10 -24 -10 -42 0 -17 -9 -51 -20 -75 -24 -53 -26 -95 -4 -103 9 -3 225
-6 481 -6 l465 0 32 33 c24 23 35 45 40 81 4 28 16 70 26 95 10 25 21 66 25
91 4 25 13 55 21 67 8 12 14 37 14 55 0 18 7 42 15 52 8 11 15 41 15 66 0 25
7 55 15 66 8 10 15 35 15 55 0 19 5 40 11 46 14 14 41 124 43 180 2 24 10 51
20 62 10 11 16 30 14 43 l-3 23 -495 3 c-377 2 -499 -1 -508 -10z"/>
<path d="M3583 7658 c-12 -6 -27 -25 -33 -42 -6 -17 -18 -44 -26 -59 -8 -16
-14 -43 -14 -61 0 -18 -5 -37 -11 -43 -12 -12 -38 -113 -46 -178 -2 -22 -10
-53 -18 -70 -7 -16 -21 -59 -30 -95 -9 -36 -23 -92 -31 -125 -8 -33 -22 -73
-30 -88 -8 -16 -14 -43 -14 -60 0 -18 -7 -41 -15 -51 -8 -11 -15 -41 -15 -66
0 -25 -7 -55 -15 -66 -8 -10 -15 -34 -15 -52 0 -18 -6 -43 -14 -55 -8 -12 -17
-40 -20 -62 -4 -22 -18 -75 -32 -117 -14 -44 -24 -93 -22 -115 l3 -38 669 -3
c770 -3 736 -6 774 77 12 27 22 62 22 78 0 16 5 34 11 40 12 12 38 113 46 178
2 22 10 54 18 70 7 17 21 58 29 93 9 34 23 90 32 125 8 34 22 75 30 90 8 16
14 43 14 60 0 18 7 41 15 51 8 11 15 41 15 66 0 25 7 55 15 66 8 10 15 34 15
52 0 18 6 43 14 55 8 12 17 40 20 62 4 22 18 72 30 110 32 95 38 151 19 170
-12 13 -107 15 -691 14 -452 0 -684 -4 -699 -11z"/>
<path d="M4617 6182 c-18 -18 -27 -39 -27 -59 0 -17 -6 -44 -14 -60 -8 -15
-22 -55 -30 -88 -8 -33 -22 -89 -31 -125 -9 -36 -23 -78 -31 -93 -8 -16 -14
-43 -14 -60 0 -18 -7 -41 -15 -51 -8 -11 -15 -41 -15 -66 0 -25 -7 -55 -15
-66 -8 -10 -15 -35 -15 -55 0 -19 -5 -40 -11 -46 -12 -12 -38 -113 -46 -178
-2 -22 -10 -53 -18 -70 -7 -16 -21 -58 -29 -92 -9 -35 -23 -91 -32 -125 -8
-35 -22 -76 -30 -91 -8 -16 -14 -43 -14 -60 0 -18 -7 -41 -15 -51 -8 -11 -15
-41 -15 -66 0 -25 -7 -55 -15 -66 -8 -10 -15 -33 -15 -51 0 -17 -6 -44 -14
-60 -8 -15 -22 -56 -30 -90 -9 -35 -23 -91 -32 -125 -8 -35 -22 -76 -30 -91
-8 -16 -14 -41 -14 -56 0 -37 -38 -183 -50 -195 -6 -6 -10 -26 -10 -45 0 -20
-7 -45 -15 -55 -8 -11 -15 -41 -15 -66 0 -25 -7 -55 -15 -66 -8 -10 -15 -34
-15 -52 0 -18 -6 -43 -14 -55 -8 -12 -17 -40 -20 -62 -4 -22 -18 -72 -32 -112
-13 -39 -24 -85 -24 -101 0 -68 92 -62 -1015 -62 -1132 0 -1066 4 -1084 -72
-6 -24 -19 -70 -30 -103 -11 -33 -23 -78 -27 -100 -3 -22 -12 -50 -20 -62 -8
-12 -14 -37 -14 -55 0 -18 -7 -42 -15 -52 -8 -11 -15 -41 -15 -66 0 -25 -7
-55 -15 -66 -8 -10 -15 -33 -15 -51 0 -17 -6 -44 -14 -60 -8 -15 -22 -56 -30
-90 -9 -35 -23 -91 -32 -125 -8 -35 -22 -76 -30 -91 -8 -16 -14 -41 -14 -56 0
-37 -38 -183 -50 -195 -6 -6 -10 -26 -10 -46 0 -20 -5 -41 -11 -47 -12 -12
-38 -113 -46 -178 -2 -22 -10 -53 -18 -70 -7 -16 -21 -58 -29 -92 -9 -35 -23
-91 -32 -125 -8 -35 -22 -76 -30 -91 -8 -16 -14 -43 -14 -62 0 -18 -7 -38 -16
-45 -8 -8 -14 -25 -12 -39 l3 -26 1013 -3 1014 -2 34 34 c29 29 34 41 34 83 0
28 6 58 15 69 8 10 15 33 15 51 0 17 6 44 14 60 8 15 22 55 30 88 8 33 22 89
31 125 27 108 46 182 61 245 8 33 22 73 30 88 8 16 14 43 14 60 0 18 7 41 15
51 8 11 15 41 15 66 0 25 7 55 15 66 8 10 15 33 15 51 0 17 6 44 14 60 8 15
22 57 31 93 9 36 23 92 31 125 8 33 22 73 30 88 8 16 14 41 14 56 0 37 38 183
50 195 6 6 10 25 10 43 0 19 6 44 14 56 7 12 16 41 20 64 3 22 16 66 27 97
l22 56 1446 0 c795 0 1454 0 1464 0 23 0 67 92 67 142 0 20 6 49 14 65 8 15
22 56 30 91 9 34 23 90 32 125 8 34 22 75 30 90 8 16 14 43 14 60 0 18 7 41
15 51 8 11 15 41 15 66 0 25 7 55 15 66 8 10 15 35 15 55 0 19 5 40 11 46 12
12 38 113 46 178 2 22 10 54 18 70 7 17 21 58 29 93 9 34 23 90 32 125 8 34
22 75 30 90 8 16 14 43 14 60 0 18 7 41 15 51 8 11 15 41 15 66 0 25 7 55 15
66 8 10 15 33 15 51 0 17 6 44 14 60 8 15 22 56 30 91 9 34 23 90 32 125 8 34
22 75 30 90 8 16 14 41 14 56 0 37 38 183 50 195 6 6 10 26 10 46 0 19 7 44
15 54 8 11 15 41 15 66 0 25 7 55 15 66 8 10 15 34 15 52 0 18 6 43 14 55 8
12 17 40 20 62 4 22 18 72 32 112 13 39 24 78 24 87 0 15 -135 16 -1458 16
l-1458 0 -27 -28z"/>
<path d="M19780 4293 c-19 -9 -62 -20 -95 -24 -147 -20 -173 -26 -199 -46 -15
-12 -40 -24 -56 -28 -16 -3 -34 -12 -40 -20 -6 -8 -34 -21 -61 -30 -27 -9 -54
-26 -60 -36 -6 -11 -40 -40 -77 -64 -80 -52 -143 -111 -179 -168 -14 -23 -45
-72 -69 -108 -24 -37 -44 -72 -44 -79 0 -7 -13 -34 -29 -59 -16 -25 -32 -64
-35 -86 -4 -22 -18 -72 -31 -111 -20 -58 -26 -100 -31 -235 -9 -217 9 -462 37
-502 11 -15 23 -46 28 -70 4 -24 20 -61 34 -82 15 -22 27 -46 27 -53 0 -18
104 -178 141 -217 35 -38 118 -120 144 -144 11 -10 38 -26 60 -35 22 -9 52
-32 68 -51 23 -29 35 -35 67 -35 32 0 43 -6 60 -30 17 -24 29 -30 58 -30 20 0
46 -7 56 -15 11 -8 40 -15 66 -15 27 0 56 -7 70 -17 28 -19 80 -23 345 -25 99
0 209 5 245 11 89 16 192 29 275 37 90 7 122 20 140 55 21 40 22 521 1 538
-18 15 -125 -1 -222 -34 -57 -20 -104 -26 -255 -35 -232 -13 -212 -13 -356 2
-67 8 -128 19 -135 26 -6 6 -27 12 -45 12 -33 0 -113 44 -113 61 0 5 -16 17
-35 26 -34 16 -95 95 -95 123 0 7 -14 35 -31 62 -39 60 -49 124 -56 341 -4
135 -2 168 16 237 11 44 31 96 45 117 15 21 26 44 26 51 0 23 105 118 156 141
27 12 56 27 64 32 70 44 70 44 410 43 325 0 325 0 400 -26 41 -15 93 -30 115
-34 22 -3 50 -12 62 -20 29 -18 49 -18 57 2 3 9 6 134 6 278 0 297 -2 306 -68
306 -20 0 -46 7 -56 15 -12 9 -41 15 -70 15 -28 0 -67 5 -86 12 -54 17 -197
29 -415 34 -170 3 -205 1 -235 -13z"/>
<path d="M22000 4293 c-19 -9 -62 -20 -95 -24 -147 -20 -173 -26 -199 -46 -15
-12 -40 -24 -56 -28 -16 -3 -34 -12 -40 -20 -6 -8 -34 -21 -61 -30 -27 -9 -54
-25 -59 -35 -6 -11 -32 -34 -58 -51 -60 -41 -175 -156 -196 -197 -9 -18 -20
-32 -24 -32 -10 0 -92 -125 -92 -141 0 -7 -13 -33 -29 -58 -16 -25 -32 -64
-35 -86 -4 -22 -18 -72 -32 -112 -21 -63 -25 -96 -30 -255 -7 -233 5 -375 34
-413 13 -17 22 -42 22 -64 1 -55 33 -139 84 -216 25 -38 46 -78 46 -88 0 -10
11 -28 23 -40 13 -12 30 -33 37 -47 7 -14 21 -34 32 -45 10 -11 32 -36 48 -56
16 -20 67 -59 113 -87 47 -29 90 -59 97 -67 6 -7 33 -21 59 -30 29 -9 56 -27
69 -44 17 -23 31 -30 69 -33 60 -6 138 -25 182 -46 38 -19 91 -22 346 -23 188
-1 337 10 394 29 19 6 68 14 110 18 90 7 131 18 165 45 l26 20 0 259 c0 215
-2 260 -15 270 -21 18 -154 -2 -191 -28 -29 -21 -71 -25 -414 -47 -110 -7
-114 -7 -247 7 -67 8 -128 19 -135 26 -6 6 -28 12 -48 12 -29 0 -44 8 -75 40
-21 22 -53 45 -71 50 -33 11 -94 90 -94 121 0 8 -12 31 -26 52 -15 23 -29 62
-34 95 -4 31 -13 69 -19 84 -6 15 -11 97 -12 182 -1 127 2 159 15 178 9 13 16
43 16 69 0 35 7 57 30 90 16 24 30 50 30 57 0 23 105 118 156 141 27 12 56 27
64 32 52 33 94 42 235 50 187 11 170 12 355 -2 124 -9 173 -17 243 -40 48 -16
96 -29 108 -29 11 0 38 -10 59 -22 72 -42 72 -41 70 267 l-1 270 -26 27 c-19
20 -37 28 -62 28 -20 0 -45 7 -55 15 -12 9 -41 15 -70 15 -28 0 -67 5 -86 12
-54 17 -197 29 -415 34 -170 3 -205 1 -235 -13z"/>
<path d="M25989 4285 c-36 -14 -102 -27 -147 -31 -63 -5 -89 -12 -114 -30 -18
-13 -39 -24 -47 -24 -55 -1 -283 -203 -300 -265 -5 -19 -19 -49 -32 -66 -34
-48 -53 -141 -52 -264 0 -160 14 -245 52 -303 17 -27 31 -56 31 -65 0 -36 229
-237 272 -237 8 0 35 -13 59 -30 24 -16 51 -30 60 -30 8 0 24 -7 35 -15 10 -8
33 -15 51 -15 17 0 44 -6 60 -14 15 -8 57 -21 93 -31 36 -9 92 -23 125 -32 33
-8 73 -21 88 -29 16 -8 41 -14 57 -14 16 0 41 -6 57 -14 15 -8 44 -21 63 -30
19 -9 46 -23 60 -31 14 -7 40 -19 58 -26 24 -8 42 -27 63 -63 16 -28 29 -58
29 -67 0 -17 -53 -70 -90 -90 -30 -15 -251 -31 -450 -31 -212 0 -557 21 -615
37 -76 21 -154 25 -171 8 -11 -12 -14 -60 -14 -258 0 -134 3 -250 6 -259 4
-11 19 -16 44 -16 21 0 57 -7 80 -15 23 -8 68 -15 99 -15 31 0 72 -5 91 -12
48 -16 231 -28 503 -34 213 -4 230 -3 274 16 25 11 64 20 87 20 71 0 154 18
184 40 16 12 55 25 91 30 35 5 70 15 80 23 9 8 30 22 46 30 45 23 245 223 245
245 0 11 11 35 24 54 13 20 26 55 29 79 3 24 11 78 16 120 7 50 7 105 2 155
-11 93 -54 223 -80 244 -11 8 -26 31 -34 50 -20 48 -104 128 -148 140 -20 6
-53 24 -74 40 -21 17 -44 30 -52 30 -8 0 -38 12 -67 26 -94 49 -107 54 -139
54 -18 0 -41 7 -51 15 -11 8 -41 15 -66 15 -25 0 -55 7 -66 15 -10 8 -34 15
-52 15 -18 0 -43 6 -55 14 -12 8 -44 17 -72 21 -27 4 -72 18 -100 32 -95 48
-107 53 -139 53 -33 0 -62 23 -99 80 -37 54 -12 157 43 180 118 49 650 40
1095 -19 33 -5 64 -5 69 0 5 4 8 117 7 251 l-2 243 -24 22 c-33 29 -115 53
-184 53 -31 0 -72 5 -91 12 -49 16 -237 29 -505 33 -222 3 -232 3 -296 -20z"/>
<path d="M28089 4285 c-36 -14 -102 -27 -147 -31 -63 -5 -89 -12 -114 -30 -18
-13 -39 -24 -47 -24 -51 -1 -285 -204 -297 -258 -4 -15 -19 -48 -35 -73 -23
-35 -31 -64 -38 -130 -5 -46 -13 -96 -19 -111 -8 -19 -7 -39 3 -75 8 -26 18
-87 23 -134 7 -66 15 -94 35 -124 15 -22 27 -47 27 -56 0 -38 229 -239 272
-239 8 0 35 -13 59 -30 24 -16 51 -30 60 -30 8 0 24 -7 35 -15 10 -8 35 -15
54 -15 19 0 44 -7 54 -15 11 -8 31 -15 45 -15 14 0 58 -12 96 -25 39 -14 104
-30 145 -36 41 -6 95 -21 120 -34 25 -13 61 -30 80 -39 19 -9 46 -23 60 -31
14 -7 40 -19 58 -26 24 -8 42 -27 63 -63 16 -28 29 -57 29 -64 0 -22 -51 -91
-73 -98 -33 -10 -311 -26 -467 -26 -213 0 -558 21 -615 37 -64 18 -154 25
-162 12 -3 -5 -5 -118 -4 -251 l2 -241 24 -22 c33 -29 115 -53 184 -53 31 0
72 -5 91 -12 48 -16 231 -28 503 -34 213 -4 230 -3 274 16 25 11 64 20 87 20
71 0 154 18 184 40 16 12 55 25 91 30 35 5 70 15 80 23 9 8 30 21 46 30 46 23
254 235 261 266 4 14 12 35 19 46 7 12 15 41 18 65 3 25 11 79 16 121 20 143
-17 313 -92 430 -48 75 -124 147 -168 159 -20 6 -53 24 -74 40 -21 17 -44 30
-52 30 -8 0 -38 12 -67 26 -94 49 -107 54 -139 54 -18 0 -41 7 -51 15 -11 8
-41 15 -66 15 -25 0 -55 7 -66 15 -10 8 -34 15 -52 15 -18 0 -43 6 -55 14 -12
8 -44 17 -72 21 -27 4 -72 18 -100 32 -95 48 -107 53 -139 53 -33 0 -62 23
-99 80 -37 54 -12 157 43 180 118 49 650 40 1095 -19 33 -5 64 -5 69 0 5 4 8
117 7 251 l-2 243 -24 22 c-33 29 -115 53 -184 53 -31 0 -72 5 -91 12 -49 16
-237 29 -505 33 -222 3 -232 3 -296 -20z"/>
<path d="M37209 4285 c-36 -13 -102 -27 -147 -31 -63 -5 -89 -12 -114 -30 -18
-13 -39 -24 -47 -24 -13 0 -35 -12 -111 -64 -14 -9 -56 -37 -95 -63 -78 -51
-194 -163 -219 -211 -9 -18 -20 -32 -24 -32 -10 0 -92 -125 -92 -141 0 -7 -13
-33 -29 -58 -16 -25 -32 -64 -35 -86 -4 -22 -18 -71 -31 -110 -44 -132 -44
-616 0 -665 11 -13 22 -45 26 -80 5 -41 16 -75 38 -108 17 -27 31 -55 31 -63
0 -8 14 -34 30 -59 16 -25 30 -53 30 -63 0 -10 15 -32 34 -50 18 -18 43 -48
56 -67 35 -53 94 -107 134 -124 19 -8 57 -35 83 -61 26 -25 64 -50 83 -55 20
-5 51 -21 70 -35 19 -14 41 -25 50 -25 9 0 25 -7 36 -15 10 -8 35 -15 54 -15
20 0 41 -5 47 -11 15 -15 124 -39 228 -51 123 -13 247 -12 325 2 36 6 99 14
141 16 l76 5 22 -33 c56 -87 82 -123 97 -131 14 -8 51 -60 136 -190 17 -26 41
-50 52 -53 12 -2 171 -3 355 -2 304 3 335 5 345 20 9 15 2 27 -41 70 -28 29
-68 79 -90 111 -80 122 -93 140 -112 153 -10 8 -37 43 -60 78 -22 36 -58 82
-79 103 -49 48 -112 144 -112 170 0 12 23 45 51 74 28 30 57 66 65 82 8 15 19
27 24 27 5 0 20 21 33 48 13 26 32 63 42 82 40 75 45 89 45 122 0 19 5 39 11
45 55 55 84 603 36 679 -4 7 -11 41 -16 78 -5 38 -18 78 -30 95 -12 16 -25 50
-30 74 -4 25 -17 58 -28 73 -12 16 -28 46 -36 67 -9 20 -20 37 -26 37 -5 0
-18 15 -30 33 -61 94 -83 121 -111 139 -18 10 -66 52 -108 94 -50 48 -89 78
-112 84 -20 5 -51 21 -70 35 -19 14 -41 25 -50 25 -9 0 -25 7 -36 15 -10 8
-35 15 -54 15 -20 0 -41 5 -47 11 -11 11 -97 33 -198 51 -33 5 -136 12 -230
13 -158 3 -174 2 -236 -20z m346 -533 c112 -17 173 -36 245 -77 14 -7 40 -19
58 -26 22 -8 41 -27 58 -55 14 -24 30 -44 35 -44 6 0 17 -17 26 -37 8 -21 28
-54 44 -74 21 -27 29 -48 29 -77 0 -23 8 -49 19 -63 27 -35 39 -275 17 -338
-9 -24 -16 -58 -16 -76 0 -19 -6 -46 -14 -62 -8 -15 -20 -43 -27 -61 -24 -66
-81 -51 -146 39 -64 87 -23 79 -397 79 -279 0 -336 -2 -346 -15 -18 -21 -5
-47 44 -87 23 -20 69 -78 100 -129 32 -50 71 -103 87 -116 34 -29 63 -79 54
-93 -9 -15 -77 -12 -125 5 -23 8 -53 15 -65 15 -12 0 -40 12 -61 26 -21 15
-54 31 -72 36 -38 11 -121 88 -146 136 -9 17 -21 32 -26 32 -6 0 -26 33 -45
73 -25 52 -37 97 -45 162 -6 50 -15 109 -21 133 -5 23 -9 66 -9 96 0 56 34
204 50 220 6 6 10 26 10 45 0 27 10 46 51 90 109 121 141 151 159 151 11 0 33
14 50 30 17 17 41 30 53 30 12 0 51 11 87 25 69 25 153 28 285 7z"/>
<path d="M17197 4291 c-36 -11 -68 -59 -93 -140 -15 -47 -36 -104 -47 -126
-48 -96 -55 -114 -77 -185 -22 -71 -29 -89 -77 -185 -11 -22 -30 -74 -43 -115
-22 -71 -29 -89 -77 -185 -11 -22 -30 -74 -43 -115 -13 -41 -32 -93 -43 -115
-48 -96 -55 -114 -77 -185 -22 -71 -29 -89 -77 -185 -11 -22 -30 -74 -43 -115
-13 -41 -32 -93 -43 -115 -48 -96 -55 -114 -77 -185 -13 -41 -31 -91 -40 -110
-9 -19 -25 -51 -35 -70 -33 -68 -87 -245 -78 -259 11 -18 530 -17 582 2 38 14
81 86 81 137 0 17 14 57 30 90 17 33 30 73 30 91 0 17 6 43 14 57 8 15 19 41
26 58 6 17 23 36 36 43 17 8 150 11 428 11 393 0 404 -1 430 -21 36 -28 46
-51 56 -120 5 -32 18 -72 30 -89 12 -17 25 -56 30 -88 7 -47 55 -150 84 -179
2 -2 129 -4 282 -3 227 0 281 3 293 15 22 22 1 151 -33 201 -14 21 -26 46 -26
54 0 8 -12 32 -26 53 -16 23 -29 62 -34 97 -5 35 -18 74 -34 97 -14 21 -26 45
-26 53 0 8 -12 32 -26 53 -16 23 -29 62 -34 97 -5 35 -18 74 -34 97 -14 21
-26 45 -26 53 0 8 -12 32 -26 53 -16 23 -29 62 -34 97 -5 35 -18 74 -34 97
-14 21 -26 45 -26 53 0 8 -12 32 -26 53 -16 23 -29 62 -34 97 -5 35 -18 74
-34 97 -14 21 -26 45 -26 53 0 8 -12 32 -26 53 -16 23 -29 62 -34 97 -5 35
-18 74 -34 97 -14 21 -26 45 -26 53 0 8 -12 32 -26 53 -16 23 -29 62 -34 97
-5 35 -18 74 -34 97 -14 21 -26 45 -26 53 0 8 -12 32 -26 53 -15 23 -29 62
-34 95 -8 59 -72 182 -94 182 -201 3 -519 4 -529 1z m287 -742 c22 -17 26 -28
26 -73 0 -41 7 -62 31 -101 20 -31 34 -70 39 -107 5 -32 18 -71 30 -89 14 -18
25 -54 29 -90 5 -40 14 -66 29 -82 12 -13 22 -30 22 -38 0 -36 -20 -39 -241
-39 -189 0 -218 2 -223 16 -10 26 -7 51 9 64 8 7 15 28 15 47 0 19 6 47 14 61
40 77 65 142 71 182 4 25 20 65 35 90 16 25 31 67 35 95 13 94 26 105 79 64z"/>
<path d="M23318 4291 c-38 -11 -38 2 -38 -1201 0 -918 3 -1170 13 -1183 11
-16 71 -17 860 -17 899 0 893 0 911 45 3 9 6 118 6 241 l0 225 -25 24 -24 25
-559 0 c-421 0 -561 3 -570 12 -17 17 -17 329 0 346 9 9 124 12 456 12 286 0
450 4 463 10 18 10 19 24 19 260 0 236 -1 250 -19 260 -13 6 -177 10 -463 10
-332 0 -447 3 -456 12 -17 17 -17 338 1 362 12 16 49 17 560 16 579 -1 594 0
611 45 9 24 7 468 -2 483 -7 10 -186 13 -870 15 -474 1 -868 0 -874 -2z"/>
<path d="M30510 4288 c-10 -4 -23 -16 -29 -27 -15 -27 -15 -2324 -1 -2352 10
-18 24 -19 269 -19 256 0 258 0 279 23 l22 23 0 1155 0 1156 -23 21 c-21 20
-33 21 -260 24 -131 2 -247 0 -257 -4z"/>
<path d="M31530 4288 c-10 -4 -23 -16 -29 -27 -15 -27 -15 -2324 -1 -2352 10
-18 24 -19 269 -19 256 0 258 0 279 23 l22 23 0 522 0 522 40 -20 c23 -12 44
-29 47 -38 4 -9 18 -31 32 -48 14 -18 42 -55 61 -84 19 -28 44 -62 56 -73 12
-12 29 -37 38 -54 9 -18 20 -33 25 -33 5 0 17 -13 28 -29 77 -120 134 -200
146 -208 19 -10 48 -51 117 -160 29 -45 73 -103 99 -130 25 -26 68 -85 95
-130 27 -46 54 -83 60 -83 705 -3 675 -5 676 46 0 22 -64 114 -80 114 -4 0
-16 13 -27 29 -78 122 -134 200 -148 208 -17 10 -20 14 -98 134 -27 41 -63 88
-80 105 -64 63 -171 232 -165 261 2 10 17 25 34 33 16 8 40 25 52 38 12 12 31
22 42 22 19 0 120 92 120 110 0 5 25 35 55 67 31 32 58 69 62 83 3 14 18 46
34 71 22 35 29 58 29 97 0 28 7 72 16 98 10 30 14 62 10 88 -3 23 -10 84 -14
137 -7 83 -12 102 -40 146 -18 27 -32 55 -32 62 0 30 -77 133 -169 229 -89 92
-102 102 -134 102 -28 0 -40 6 -57 30 -17 24 -29 30 -59 30 -20 0 -42 5 -48
11 -6 6 -39 18 -74 26 -54 14 -160 17 -667 22 -332 3 -612 3 -622 -1z m1235
-581 c100 -60 124 -91 124 -162 1 -22 8 -61 17 -86 16 -45 16 -48 -3 -80 -11
-19 -23 -46 -27 -60 -7 -30 -78 -109 -116 -130 -19 -10 -101 -14 -335 -17
-292 -4 -311 -3 -333 14 -23 19 -23 19 -22 268 0 172 4 254 12 263 9 12 69 14
332 11 287 -3 324 -5 351 -21z"/>
<path d="M34657 4291 c-32 -10 -67 -56 -67 -89 0 -19 -6 -46 -13 -60 -18 -36
-40 -79 -62 -122 -41 -78 -45 -89 -45 -120 0 -30 -4 -41 -43 -117 -9 -18 -25
-48 -34 -65 -39 -77 -43 -88 -43 -118 0 -18 -6 -44 -13 -58 -18 -36 -40 -79
-62 -122 -41 -78 -45 -89 -45 -120 0 -18 -6 -44 -13 -58 -18 -36 -40 -79 -62
-122 -41 -78 -45 -89 -45 -120 0 -30 -4 -41 -43 -117 -9 -18 -25 -48 -34 -65
-39 -77 -43 -88 -43 -118 0 -18 -6 -44 -13 -58 -18 -36 -40 -79 -62 -122 -41
-78 -45 -89 -45 -120 0 -18 -6 -44 -13 -58 -18 -36 -40 -79 -62 -122 -41 -78
-45 -89 -45 -119 0 -17 -17 -65 -37 -106 -56 -113 -69 -108 252 -106 179 1
281 6 303 14 28 9 39 24 67 82 18 38 36 90 40 115 4 25 20 65 35 90 15 25 31
65 35 90 9 66 24 97 48 104 12 3 203 6 423 6 391 0 402 -1 428 -21 36 -28 46
-51 56 -119 5 -35 19 -74 35 -98 17 -26 30 -62 34 -99 5 -35 17 -72 32 -94 13
-20 29 -44 34 -53 9 -16 37 -17 289 -16 159 0 286 5 296 10 10 6 22 19 25 30
8 24 -28 132 -56 171 -11 16 -37 83 -59 149 -22 66 -49 134 -60 150 -11 16
-38 84 -60 150 -22 66 -49 134 -60 150 -11 16 -38 84 -60 150 -22 66 -49 134
-60 150 -11 16 -38 84 -60 150 -22 66 -49 134 -60 150 -11 16 -38 84 -60 150
-22 66 -49 134 -60 150 -11 16 -38 84 -60 150 -22 66 -49 134 -60 150 -11 16
-38 82 -59 147 -38 116 -103 243 -125 243 -201 3 -519 4 -529 1z m287 -744
c24 -19 29 -32 35 -88 4 -43 14 -75 30 -97 13 -19 26 -57 31 -91 5 -36 19 -74
36 -100 18 -27 29 -59 32 -94 3 -33 12 -60 24 -74 15 -16 19 -29 14 -47 l-6
-26 -218 0 c-156 0 -221 3 -230 12 -18 18 -15 46 8 78 11 15 26 57 33 92 8 35
25 81 39 103 15 22 29 60 33 85 4 25 24 82 46 127 21 46 39 96 39 113 0 36 15
38 54 7z"/>
</g>
</svg>
